<svg id="Capa_1" enable-background="new 0 0 512 512" height="512" viewBox="0 0 512 512" width="512" xmlns="http://www.w3.org/2000/svg" xmlns:xlink="http://www.w3.org/1999/xlink"><linearGradient id="SVGID_1_" gradientUnits="userSpaceOnUse" x1="256" x2="256" y1="512" y2="0"><stop offset="0" stop-color="#fd3a84"/><stop offset="1" stop-color="#ffa68d"/></linearGradient><g><g><path d="m195 272h-150c-24.813 0-45 20.187-45 45v150c0 24.813 20.187 45 45 45h150c24.813 0 45-20.187 45-45v-150c0-24.813-20.187-45-45-45zm15 195c0 8.271-6.729 15-15 15h-150c-8.271 0-15-6.729-15-15v-150c0-8.271 6.729-15 15-15h150c8.271 0 15 6.729 15 15zm257-467h-150c-24.813 0-45 20.187-45 45v150c0 24.813 20.187 45 45 45h150c24.813 0 45-20.187 45-45v-150c0-24.813-20.187-45-45-45zm15 195c0 8.271-6.729 15-15 15h-150c-8.271 0-15-6.729-15-15v-150c0-8.271 6.729-15 15-15h150c8.271 0 15 6.729 15 15zm-317-90h-30v-30c0-8.284-6.716-15-15-15s-15 6.716-15 15v30h-30c-8.284 0-15 6.716-15 15s6.716 15 15 15h30v30c0 8.284 6.716 15 15 15s15-6.716 15-15v-30h30c8.284 0 15-6.716 15-15s-6.716-15-15-15zm-2.574 244.573c-5.857-5.858-15.355-5.858-21.213 0l-21.213 21.214-21.213-21.213c-5.856-5.858-15.354-5.858-21.213 0-5.858 5.858-5.858 15.355 0 21.213l21.213 21.213-21.213 21.213c-5.858 5.858-5.858 15.355 0 21.213 2.929 2.929 6.768 4.393 10.606 4.393s7.678-1.465 10.606-4.394l21.214-21.212 21.213 21.213c5.856 5.858 15.354 5.858 21.213 0 5.858-5.858 5.858-15.355 0-21.213l-21.213-21.213 21.213-21.213c5.858-5.858 5.858-15.356 0-21.214zm32.574-349.573h-150c-24.813 0-45 20.187-45 45v150c0 24.813 20.187 45 45 45h150c24.813 0 45-20.187 45-45v-150c0-24.813-20.187-45-45-45zm15 195c0 8.271-6.729 15-15 15h-150c-8.271 0-15-6.729-15-15v-150c0-8.271 6.729-15 15-15h150c8.271 0 15 6.729 15 15zm227 152h-90c-8.284 0-15 6.716-15 15s6.716 15 15 15h90c8.284 0 15-6.716 15-15s-6.716-15-15-15zm30-75h-150c-24.813 0-45 20.187-45 45v150c0 24.813 20.187 45 45 45h150c24.813 0 45-20.187 45-45v-150c0-24.813-20.187-45-45-45zm15 195c0 8.271-6.729 15-15 15h-150c-8.271 0-15-6.729-15-15v-150c0-8.271 6.729-15 15-15h150c8.271 0 15 6.729 15 15zm-45-362h-90c-8.284 0-15 6.716-15 15s6.716 15 15 15h90c8.284 0 15-6.716 15-15s-6.716-15-15-15zm0 302h-90c-8.284 0-15 6.716-15 15s6.716 15 15 15h90c8.284 0 15-6.716 15-15s-6.716-15-15-15z" fill="url(#SVGID_1_)"/></g></g></svg>